<mxfile host="app.diagrams.net" modified="2024-04-22T18:52:26.786Z" agent="Mozilla/5.0 (Windows NT 10.0; Win64; x64) AppleWebKit/537.36 (KHTML, like Gecko) Chrome/124.0.0.0 Safari/537.36 Edg/124.0.0.0" etag="TiR-9TAMgpt_PojsVUBE" version="24.2.8" type="github">
  <diagram name="Page-1" id="Vzbm8jy71CZkj5zGFncF">
    <mxGraphModel dx="2261" dy="787" grid="1" gridSize="10" guides="1" tooltips="1" connect="1" arrows="1" fold="1" page="1" pageScale="1" pageWidth="827" pageHeight="1169" math="0" shadow="0">
      <root>
        <mxCell id="0" />
        <mxCell id="1" parent="0" />
        <mxCell id="DSozMm_HZu1_h1FUPsTn-17" value="" style="edgeStyle=orthogonalEdgeStyle;rounded=0;orthogonalLoop=1;jettySize=auto;html=1;" edge="1" parent="1" source="DSozMm_HZu1_h1FUPsTn-3" target="DSozMm_HZu1_h1FUPsTn-16">
          <mxGeometry relative="1" as="geometry" />
        </mxCell>
        <mxCell id="DSozMm_HZu1_h1FUPsTn-3" value="Start" style="strokeWidth=2;html=1;shape=mxgraph.flowchart.terminator;whiteSpace=wrap;" vertex="1" parent="1">
          <mxGeometry x="364" y="120" width="100" height="60" as="geometry" />
        </mxCell>
        <mxCell id="DSozMm_HZu1_h1FUPsTn-19" value="" style="edgeStyle=orthogonalEdgeStyle;rounded=0;orthogonalLoop=1;jettySize=auto;html=1;" edge="1" parent="1" source="DSozMm_HZu1_h1FUPsTn-16" target="DSozMm_HZu1_h1FUPsTn-18">
          <mxGeometry relative="1" as="geometry" />
        </mxCell>
        <mxCell id="DSozMm_HZu1_h1FUPsTn-21" value="" style="edgeStyle=orthogonalEdgeStyle;rounded=0;orthogonalLoop=1;jettySize=auto;html=1;" edge="1" parent="1" source="DSozMm_HZu1_h1FUPsTn-16" target="DSozMm_HZu1_h1FUPsTn-20">
          <mxGeometry relative="1" as="geometry" />
        </mxCell>
        <mxCell id="DSozMm_HZu1_h1FUPsTn-16" value="Proximity?" style="shape=parallelogram;perimeter=parallelogramPerimeter;whiteSpace=wrap;html=1;fixedSize=1;strokeWidth=2;" vertex="1" parent="1">
          <mxGeometry x="354" y="260" width="120" height="60" as="geometry" />
        </mxCell>
        <mxCell id="DSozMm_HZu1_h1FUPsTn-27" value="" style="edgeStyle=orthogonalEdgeStyle;rounded=0;orthogonalLoop=1;jettySize=auto;html=1;" edge="1" parent="1" source="DSozMm_HZu1_h1FUPsTn-18" target="DSozMm_HZu1_h1FUPsTn-26">
          <mxGeometry relative="1" as="geometry" />
        </mxCell>
        <mxCell id="DSozMm_HZu1_h1FUPsTn-29" value="" style="edgeStyle=orthogonalEdgeStyle;rounded=0;orthogonalLoop=1;jettySize=auto;html=1;" edge="1" parent="1" source="DSozMm_HZu1_h1FUPsTn-18" target="DSozMm_HZu1_h1FUPsTn-28">
          <mxGeometry relative="1" as="geometry" />
        </mxCell>
        <mxCell id="DSozMm_HZu1_h1FUPsTn-18" value="Alergic?" style="shape=parallelogram;perimeter=parallelogramPerimeter;whiteSpace=wrap;html=1;fixedSize=1;strokeWidth=2;" vertex="1" parent="1">
          <mxGeometry x="354" y="400" width="120" height="60" as="geometry" />
        </mxCell>
        <mxCell id="DSozMm_HZu1_h1FUPsTn-23" value="" style="edgeStyle=orthogonalEdgeStyle;rounded=0;orthogonalLoop=1;jettySize=auto;html=1;" edge="1" parent="1" source="DSozMm_HZu1_h1FUPsTn-20" target="DSozMm_HZu1_h1FUPsTn-22">
          <mxGeometry relative="1" as="geometry" />
        </mxCell>
        <mxCell id="DSozMm_HZu1_h1FUPsTn-25" value="" style="edgeStyle=orthogonalEdgeStyle;rounded=0;orthogonalLoop=1;jettySize=auto;html=1;" edge="1" parent="1" source="DSozMm_HZu1_h1FUPsTn-20" target="DSozMm_HZu1_h1FUPsTn-24">
          <mxGeometry relative="1" as="geometry" />
        </mxCell>
        <mxCell id="DSozMm_HZu1_h1FUPsTn-20" value="Noise?" style="shape=parallelogram;perimeter=parallelogramPerimeter;whiteSpace=wrap;html=1;fixedSize=1;strokeWidth=2;" vertex="1" parent="1">
          <mxGeometry x="154" y="260" width="120" height="60" as="geometry" />
        </mxCell>
        <mxCell id="DSozMm_HZu1_h1FUPsTn-35" value="" style="edgeStyle=orthogonalEdgeStyle;rounded=0;orthogonalLoop=1;jettySize=auto;html=1;" edge="1" parent="1" source="DSozMm_HZu1_h1FUPsTn-22" target="DSozMm_HZu1_h1FUPsTn-34">
          <mxGeometry relative="1" as="geometry" />
        </mxCell>
        <mxCell id="DSozMm_HZu1_h1FUPsTn-22" value="Fish" style="whiteSpace=wrap;html=1;strokeWidth=2;" vertex="1" parent="1">
          <mxGeometry x="154" y="400" width="120" height="60" as="geometry" />
        </mxCell>
        <mxCell id="DSozMm_HZu1_h1FUPsTn-37" value="" style="edgeStyle=orthogonalEdgeStyle;rounded=0;orthogonalLoop=1;jettySize=auto;html=1;" edge="1" parent="1" source="DSozMm_HZu1_h1FUPsTn-24" target="DSozMm_HZu1_h1FUPsTn-36">
          <mxGeometry relative="1" as="geometry" />
        </mxCell>
        <mxCell id="DSozMm_HZu1_h1FUPsTn-24" value="Bird" style="whiteSpace=wrap;html=1;strokeWidth=2;" vertex="1" parent="1">
          <mxGeometry x="-46" y="260" width="120" height="60" as="geometry" />
        </mxCell>
        <mxCell id="DSozMm_HZu1_h1FUPsTn-31" value="" style="edgeStyle=orthogonalEdgeStyle;rounded=0;orthogonalLoop=1;jettySize=auto;html=1;" edge="1" parent="1" source="DSozMm_HZu1_h1FUPsTn-26" target="DSozMm_HZu1_h1FUPsTn-30">
          <mxGeometry relative="1" as="geometry" />
        </mxCell>
        <mxCell id="DSozMm_HZu1_h1FUPsTn-26" value="Dog" style="whiteSpace=wrap;html=1;strokeWidth=2;" vertex="1" parent="1">
          <mxGeometry x="354" y="540" width="120" height="60" as="geometry" />
        </mxCell>
        <mxCell id="DSozMm_HZu1_h1FUPsTn-33" value="" style="edgeStyle=orthogonalEdgeStyle;rounded=0;orthogonalLoop=1;jettySize=auto;html=1;" edge="1" parent="1" source="DSozMm_HZu1_h1FUPsTn-28" target="DSozMm_HZu1_h1FUPsTn-32">
          <mxGeometry relative="1" as="geometry" />
        </mxCell>
        <mxCell id="DSozMm_HZu1_h1FUPsTn-28" value="Cat" style="whiteSpace=wrap;html=1;strokeWidth=2;" vertex="1" parent="1">
          <mxGeometry x="554" y="400" width="120" height="60" as="geometry" />
        </mxCell>
        <mxCell id="DSozMm_HZu1_h1FUPsTn-30" value="End" style="rounded=1;whiteSpace=wrap;html=1;strokeWidth=2;arcSize=50;" vertex="1" parent="1">
          <mxGeometry x="354" y="680" width="120" height="60" as="geometry" />
        </mxCell>
        <mxCell id="DSozMm_HZu1_h1FUPsTn-32" value="End" style="rounded=1;whiteSpace=wrap;html=1;strokeWidth=2;arcSize=50;" vertex="1" parent="1">
          <mxGeometry x="754" y="400" width="120" height="60" as="geometry" />
        </mxCell>
        <mxCell id="DSozMm_HZu1_h1FUPsTn-34" value="End" style="rounded=1;whiteSpace=wrap;html=1;strokeWidth=2;arcSize=50;" vertex="1" parent="1">
          <mxGeometry x="154" y="540" width="120" height="60" as="geometry" />
        </mxCell>
        <mxCell id="DSozMm_HZu1_h1FUPsTn-36" value="End" style="rounded=1;whiteSpace=wrap;html=1;strokeWidth=2;arcSize=50;" vertex="1" parent="1">
          <mxGeometry x="-246" y="260" width="120" height="60" as="geometry" />
        </mxCell>
      </root>
    </mxGraphModel>
  </diagram>
</mxfile>
